<svg width="800" height="450" viewBox="0 0 800 450" fill="none" xmlns="http://www.w3.org/2000/svg">
  <rect width="800" height="450" fill="#0f172a"/>
  
  <!-- Background stars -->
  <g opacity="0.3">
    <circle cx="100" cy="50" r="1" fill="#f8fafc"/>
    <circle cx="200" cy="80" r="1.5" fill="#f8fafc"/>
    <circle cx="300" cy="30" r="1" fill="#f8fafc"/>
    <circle cx="400" cy="70" r="1.5" fill="#f8fafc"/>
    <circle cx="500" cy="40" r="1" fill="#f8fafc"/>
    <circle cx="600" cy="90" r="1.5" fill="#f8fafc"/>
    <circle cx="700" cy="60" r="1" fill="#f8fafc"/>
    <circle cx="150" cy="120" r="1.5" fill="#f8fafc"/>
    <circle cx="250" cy="150" r="1" fill="#f8fafc"/>
    <circle cx="350" cy="130" r="1.5" fill="#f8fafc"/>
    <circle cx="450" cy="110" r="1" fill="#f8fafc"/>
    <circle cx="550" cy="140" r="1.5" fill="#f8fafc"/>
    <circle cx="650" cy="100" r="1" fill="#f8fafc"/>
    <circle cx="750" cy="130" r="1.5" fill="#f8fafc"/>
    <circle cx="100" cy="200" r="1" fill="#f8fafc"/>
    <circle cx="200" cy="230" r="1.5" fill="#f8fafc"/>
    <circle cx="300" cy="180" r="1" fill="#f8fafc"/>
    <circle cx="400" cy="220" r="1.5" fill="#f8fafc"/>
    <circle cx="500" cy="190" r="1" fill="#f8fafc"/>
    <circle cx="600" cy="240" r="1.5" fill="#f8fafc"/>
    <circle cx="700" cy="210" r="1" fill="#f8fafc"/>
    <circle cx="150" cy="270" r="1.5" fill="#f8fafc"/>
    <circle cx="250" cy="300" r="1" fill="#f8fafc"/>
    <circle cx="350" cy="280" r="1.5" fill="#f8fafc"/>
    <circle cx="450" cy="260" r="1" fill="#f8fafc"/>
    <circle cx="550" cy="290" r="1.5" fill="#f8fafc"/>
    <circle cx="650" cy="250" r="1" fill="#f8fafc"/>
    <circle cx="750" cy="280" r="1.5" fill="#f8fafc"/>
    <circle cx="100" cy="350" r="1" fill="#f8fafc"/>
    <circle cx="200" cy="380" r="1.5" fill="#f8fafc"/>
    <circle cx="300" cy="330" r="1" fill="#f8fafc"/>
    <circle cx="400" cy="370" r="1.5" fill="#f8fafc"/>
    <circle cx="500" cy="340" r="1" fill="#f8fafc"/>
    <circle cx="600" cy="390" r="1.5" fill="#f8fafc"/>
    <circle cx="700" cy="360" r="1" fill="#f8fafc"/>
    <circle cx="150" cy="420" r="1.5" fill="#f8fafc"/>
    <circle cx="250" cy="450" r="1" fill="#f8fafc"/>
    <circle cx="350" cy="430" r="1.5" fill="#f8fafc"/>
    <circle cx="450" cy="410" r="1" fill="#f8fafc"/>
    <circle cx="550" cy="440" r="1.5" fill="#f8fafc"/>
    <circle cx="650" cy="400" r="1" fill="#f8fafc"/>
    <circle cx="750" cy="430" r="1.5" fill="#f8fafc"/>
  </g>
  
  <!-- Portfolio UI -->
  <!-- Header/Navigation -->
  <rect x="150" y="50" width="500" height="60" rx="4" fill="#f8fafc" fill-opacity="0.05"/>
  <rect x="170" y="65" width="120" height="30" rx="4" fill="#0ea5e9"/>
  <rect x="350" y="65" width="60" height="30" rx="4" fill="#f8fafc" fill-opacity="0.1"/>
  <rect x="420" y="65" width="60" height="30" rx="4" fill="#f8fafc" fill-opacity="0.1"/>
  <rect x="490" y="65" width="60" height="30" rx="4" fill="#f8fafc" fill-opacity="0.1"/>
  <rect x="560" y="65" width="60" height="30" rx="4" fill="#f8fafc" fill-opacity="0.1"/>
  
  <!-- Hero section -->
  <rect x="150" y="130" width="500" height="200" rx="4" fill="#0ea5e9" fill-opacity="0.1"/>
  
  <!-- Hero content -->
  <rect x="170" y="170" width="250" height="40" rx="4" fill="#f8fafc" fill-opacity="0.9"/>
  <rect x="170" y="220" width="200" height="20" rx="4" fill="#f8fafc" fill-opacity="0.5"/>
  <rect x="170" y="250" width="200" height="20" rx="4" fill="#f8fafc" fill-opacity="0.5"/>
  
  <!-- Hero buttons -->
  <rect x="170" y="290" width="100" height="30" rx="15" fill="#0ea5e9"/>
  <rect x="280" y="290" width="100" height="30" rx="15" fill="#f8fafc" fill-opacity="0.1"/>
  
  <!-- Hero image/illustration -->
  <circle cx="550" cy="230" r="70" fill="#4f46e5" fill-opacity="0.2"/>
  <circle cx="550" cy="230" r="50" fill="#0ea5e9" fill-opacity="0.3"/>
  
  <!-- Projects section -->
  <rect x="150" y="350" width="500" height="80" rx="4" fill="#f8fafc" fill-opacity="0.05"/>
  
  <!-- Project cards -->
  <rect x="170" y="365" width="140" height="50" rx="4" fill="#f8fafc" fill-opacity="0.1"/>
  <rect x="330" y="365" width="140" height="50" rx="4" fill="#f8fafc" fill-opacity="0.1"/>
  <rect x="490" y="365" width="140" height="50" rx="4" fill="#f8fafc" fill-opacity="0.1"/>
</svg>