<svg width="800" height="800" viewBox="0 0 800 800" fill="none" xmlns="http://www.w3.org/2000/svg">
  <rect width="800" height="800" fill="#0f172a"/>
  
  <!-- Background stars -->
  <g opacity="0.3">
    <circle cx="100" cy="100" r="1" fill="#f8fafc"/>
    <circle cx="200" cy="150" r="1.5" fill="#f8fafc"/>
    <circle cx="300" cy="80" r="1" fill="#f8fafc"/>
    <circle cx="400" cy="120" r="1.5" fill="#f8fafc"/>
    <circle cx="500" cy="90" r="1" fill="#f8fafc"/>
    <circle cx="600" cy="140" r="1.5" fill="#f8fafc"/>
    <circle cx="700" cy="110" r="1" fill="#f8fafc"/>
    <circle cx="150" cy="200" r="1.5" fill="#f8fafc"/>
    <circle cx="250" cy="250" r="1" fill="#f8fafc"/>
    <circle cx="350" cy="180" r="1.5" fill="#f8fafc"/>
    <circle cx="450" cy="220" r="1" fill="#f8fafc"/>
    <circle cx="550" cy="190" r="1.5" fill="#f8fafc"/>
    <circle cx="650" cy="240" r="1" fill="#f8fafc"/>
    <circle cx="750" cy="210" r="1.5" fill="#f8fafc"/>
    <circle cx="100" cy="300" r="1" fill="#f8fafc"/>
    <circle cx="200" cy="350" r="1.5" fill="#f8fafc"/>
    <circle cx="300" cy="280" r="1" fill="#f8fafc"/>
    <circle cx="400" cy="320" r="1.5" fill="#f8fafc"/>
    <circle cx="500" cy="290" r="1" fill="#f8fafc"/>
    <circle cx="600" cy="340" r="1.5" fill="#f8fafc"/>
    <circle cx="700" cy="310" r="1" fill="#f8fafc"/>
    <circle cx="150" cy="400" r="1.5" fill="#f8fafc"/>
    <circle cx="250" cy="450" r="1" fill="#f8fafc"/>
    <circle cx="350" cy="380" r="1.5" fill="#f8fafc"/>
    <circle cx="450" cy="420" r="1" fill="#f8fafc"/>
    <circle cx="550" cy="390" r="1.5" fill="#f8fafc"/>
    <circle cx="650" cy="440" r="1" fill="#f8fafc"/>
    <circle cx="750" cy="410" r="1.5" fill="#f8fafc"/>
    <circle cx="100" cy="500" r="1" fill="#f8fafc"/>
    <circle cx="200" cy="550" r="1.5" fill="#f8fafc"/>
    <circle cx="300" cy="480" r="1" fill="#f8fafc"/>
    <circle cx="400" cy="520" r="1.5" fill="#f8fafc"/>
    <circle cx="500" cy="490" r="1" fill="#f8fafc"/>
    <circle cx="600" cy="540" r="1.5" fill="#f8fafc"/>
    <circle cx="700" cy="510" r="1" fill="#f8fafc"/>
    <circle cx="150" cy="600" r="1.5" fill="#f8fafc"/>
    <circle cx="250" cy="650" r="1" fill="#f8fafc"/>
    <circle cx="350" cy="580" r="1.5" fill="#f8fafc"/>
    <circle cx="450" cy="620" r="1" fill="#f8fafc"/>
    <circle cx="550" cy="590" r="1.5" fill="#f8fafc"/>
    <circle cx="650" cy="640" r="1" fill="#f8fafc"/>
    <circle cx="750" cy="610" r="1.5" fill="#f8fafc"/>
    <circle cx="100" cy="700" r="1" fill="#f8fafc"/>
    <circle cx="200" cy="750" r="1.5" fill="#f8fafc"/>
    <circle cx="300" cy="680" r="1" fill="#f8fafc"/>
    <circle cx="400" cy="720" r="1.5" fill="#f8fafc"/>
    <circle cx="500" cy="690" r="1" fill="#f8fafc"/>
    <circle cx="600" cy="740" r="1.5" fill="#f8fafc"/>
    <circle cx="700" cy="710" r="1" fill="#f8fafc"/>
  </g>
  
  <!-- Silhouette -->
  <g>
    <!-- Head and shoulders silhouette -->
    <path d="M400 200 C320 200, 250 280, 250 380 L250 500 L550 500 L550 380 C550 280, 480 200, 400 200 Z" fill="#0ea5e9" fill-opacity="0.2" />
    <path d="M400 220 C330 220, 270 290, 270 380 L270 480 L530 480 L530 380 C530 290, 470 220, 400 220 Z" fill="#0ea5e9" fill-opacity="0.3" />
    
    <!-- Abstract face elements -->
    <circle cx="350" cy="320" r="15" fill="#f8fafc" fill-opacity="0.5" />
    <circle cx="450" cy="320" r="15" fill="#f8fafc" fill-opacity="0.5" />
    <path d="M370 380 Q400 410, 430 380" stroke="#f8fafc" stroke-width="5" stroke-opacity="0.5" fill="none" />
  </g>
  
  <!-- Chess piece -->
  <g transform="translate(150, 550) scale(0.7)">
    <path d="M100 100 L140 100 L120 60 Z" fill="#f8fafc" fill-opacity="0.7" />
    <rect x="110" y="100" width="20" height="30" fill="#f8fafc" fill-opacity="0.7" />
    <path d="M100 130 L140 130 L150 150 L90 150 Z" fill="#f8fafc" fill-opacity="0.7" />
    <rect x="95" y="150" width="50" height="10" fill="#f8fafc" fill-opacity="0.7" />
  </g>
  
  <!-- Book/Poetry -->
  <g transform="translate(550, 550) scale(0.7)">
    <rect x="100" y="100" width="60" height="80" rx="2" fill="#f8fafc" fill-opacity="0.7" />
    <rect x="105" y="105" width="50" height="70" rx="1" fill="#0f172a" />
    <line x1="115" y1="120" x2="145" y2="120" stroke="#f8fafc" stroke-opacity="0.7" stroke-width="2" />
    <line x1="115" y1="130" x2="145" y2="130" stroke="#f8fafc" stroke-opacity="0.7" stroke-width="2" />
    <line x1="115" y1="140" x2="135" y2="140" stroke="#f8fafc" stroke-opacity="0.7" stroke-width="2" />
    <line x1="115" y1="150" x2="145" y2="150" stroke="#f8fafc" stroke-opacity="0.7" stroke-width="2" />
    <line x1="115" y1="160" x2="135" y2="160" stroke="#f8fafc" stroke-opacity="0.7" stroke-width="2" />
  </g>
  
  <!-- Space elements -->
  <circle cx="400" cy="650" r="40" fill="#4f46e5" fill-opacity="0.3" />
  <circle cx="400" cy="650" r="35" fill="#0f172a" />
  <circle cx="385" cy="635" r="8" fill="#0ea5e9" fill-opacity="0.5" />
  <circle cx="415" cy="660" r="5" fill="#0ea5e9" fill-opacity="0.5" />
  
  <!-- Film strip -->
  <g transform="translate(300, 550) scale(0.7)">
    <rect x="100" y="100" width="80" height="20" fill="#f8fafc" fill-opacity="0.7" />
    <rect x="105" y="105" width="10" height="10" fill="#0f172a" />
    <rect x="125" y="105" width="10" height="10" fill="#0f172a" />
    <rect x="145" y="105" width="10" height="10" fill="#0f172a" />
    <rect x="165" y="105" width="10" height="10" fill="#0f172a" />
    <rect x="100" y="130" width="80" height="20" fill="#f8fafc" fill-opacity="0.7" />
    <rect x="105" y="135" width="10" height="10" fill="#0f172a" />
    <rect x="125" y="135" width="10" height="10" fill="#0f172a" />
    <rect x="145" y="135" width="10" height="10" fill="#0f172a" />
    <rect x="165" y="135" width="10" height="10" fill="#0f172a" />
  </g>
</svg>