<svg width="800" height="450" viewBox="0 0 800 450" fill="none" xmlns="http://www.w3.org/2000/svg">
  <rect width="800" height="450" fill="#0f172a"/>
  
  <!-- Background pattern -->
  <g opacity="0.05">
    <rect x="50" y="50" width="20" height="20" fill="#f8fafc"/>
    <rect x="90" y="50" width="20" height="20" fill="#f8fafc"/>
    <rect x="130" y="50" width="20" height="20" fill="#f8fafc"/>
    <rect x="170" y="50" width="20" height="20" fill="#f8fafc"/>
    <rect x="210" y="50" width="20" height="20" fill="#f8fafc"/>
    <rect x="250" y="50" width="20" height="20" fill="#f8fafc"/>
    <rect x="290" y="50" width="20" height="20" fill="#f8fafc"/>
    <rect x="330" y="50" width="20" height="20" fill="#f8fafc"/>
    <rect x="370" y="50" width="20" height="20" fill="#f8fafc"/>
    <rect x="410" y="50" width="20" height="20" fill="#f8fafc"/>
    <rect x="450" y="50" width="20" height="20" fill="#f8fafc"/>
    <rect x="490" y="50" width="20" height="20" fill="#f8fafc"/>
    <rect x="530" y="50" width="20" height="20" fill="#f8fafc"/>
    <rect x="570" y="50" width="20" height="20" fill="#f8fafc"/>
    <rect x="610" y="50" width="20" height="20" fill="#f8fafc"/>
    <rect x="650" y="50" width="20" height="20" fill="#f8fafc"/>
    <rect x="690" y="50" width="20" height="20" fill="#f8fafc"/>
    <rect x="730" y="50" width="20" height="20" fill="#f8fafc"/>
    
    <!-- Repeat pattern vertically -->
    <rect x="50" y="90" width="20" height="20" fill="#f8fafc"/>
    <rect x="50" y="130" width="20" height="20" fill="#f8fafc"/>
    <rect x="50" y="170" width="20" height="20" fill="#f8fafc"/>
    <rect x="50" y="210" width="20" height="20" fill="#f8fafc"/>
    <rect x="50" y="250" width="20" height="20" fill="#f8fafc"/>
    <rect x="50" y="290" width="20" height="20" fill="#f8fafc"/>
    <rect x="50" y="330" width="20" height="20" fill="#f8fafc"/>
    <rect x="50" y="370" width="20" height="20" fill="#f8fafc"/>
    
    <rect x="730" y="90" width="20" height="20" fill="#f8fafc"/>
    <rect x="730" y="130" width="20" height="20" fill="#f8fafc"/>
    <rect x="730" y="170" width="20" height="20" fill="#f8fafc"/>
    <rect x="730" y="210" width="20" height="20" fill="#f8fafc"/>
    <rect x="730" y="250" width="20" height="20" fill="#f8fafc"/>
    <rect x="730" y="290" width="20" height="20" fill="#f8fafc"/>
    <rect x="730" y="330" width="20" height="20" fill="#f8fafc"/>
    <rect x="730" y="370" width="20" height="20" fill="#f8fafc"/>
  </g>
  
  <!-- Task app UI -->
  <!-- App container -->
  <rect x="150" y="75" width="500" height="300" rx="8" fill="#1e293b"/>
  
  <!-- Sidebar -->
  <rect x="150" y="75" width="150" height="300" rx="8" fill="#0ea5e9" fill-opacity="0.1"/>
  <rect x="170" y="100" width="110" height="20" rx="4" fill="#0ea5e9" fill-opacity="0.8"/>
  <rect x="170" y="140" width="110" height="10" rx="2" fill="#f8fafc" fill-opacity="0.5"/>
  <rect x="170" y="160" width="110" height="10" rx="2" fill="#f8fafc" fill-opacity="0.3"/>
  <rect x="170" y="180" width="110" height="10" rx="2" fill="#f8fafc" fill-opacity="0.3"/>
  <rect x="170" y="200" width="110" height="10" rx="2" fill="#f8fafc" fill-opacity="0.3"/>
  <rect x="170" y="240" width="110" height="30" rx="4" fill="#0ea5e9" fill-opacity="0.2"/>
  
  <!-- Main content -->
  <rect x="320" y="100" width="310" height="40" rx="4" fill="#f8fafc" fill-opacity="0.05"/>
  
  <!-- Task items -->
  <rect x="320" y="160" width="310" height="50" rx="4" fill="#f8fafc" fill-opacity="0.1"/>
  <circle cx="340" cy="185" r="10" fill="#0ea5e9"/>
  <rect x="360" y="175" width="150" height="10" rx="2" fill="#f8fafc" fill-opacity="0.8"/>
  <rect x="360" y="190" width="100" height="6" rx="2" fill="#f8fafc" fill-opacity="0.3"/>
  <rect x="580" y="175" width="30" height="20" rx="4" fill="#4f46e5" fill-opacity="0.5"/>
  
  <rect x="320" y="220" width="310" height="50" rx="4" fill="#f8fafc" fill-opacity="0.1"/>
  <circle cx="340" cy="245" r="10" fill="#f8fafc" fill-opacity="0.2"/>
  <rect x="360" y="235" width="180" height="10" rx="2" fill="#f8fafc" fill-opacity="0.8"/>
  <rect x="360" y="250" width="120" height="6" rx="2" fill="#f8fafc" fill-opacity="0.3"/>
  <rect x="580" y="235" width="30" height="20" rx="4" fill="#0ea5e9" fill-opacity="0.5"/>
  
  <rect x="320" y="280" width="310" height="50" rx="4" fill="#f8fafc" fill-opacity="0.1"/>
  <circle cx="340" cy="305" r="10" fill="#f8fafc" fill-opacity="0.2"/>
  <rect x="360" y="295" width="130" height="10" rx="2" fill="#f8fafc" fill-opacity="0.8"/>
  <rect x="360" y="310" width="90" height="6" rx="2" fill="#f8fafc" fill-opacity="0.3"/>
  <rect x="580" y="295" width="30" height="20" rx="4" fill="#0ea5e9" fill-opacity="0.5"/>
</svg>